<svg width="160" height="105" viewBox="0 0 160 105" fill="none" xmlns="http://www.w3.org/2000/svg">
<g style="mix-blend-mode:multiply">
<rect x="1" y="56" width="48" height="48" stroke="#D03189" stroke-width="2"/>
</g>
<g style="mix-blend-mode:multiply">
<rect x="56" y="56" width="48" height="48" stroke="#D03189" stroke-width="2"/>
</g>
<g style="mix-blend-mode:multiply">
<rect x="56" y="1" width="48" height="48" stroke="#D03189" stroke-width="2"/>
</g>
<g style="mix-blend-mode:multiply">
<rect x="111" y="56" width="48" height="48" stroke="#D03189" stroke-width="2"/>
</g>
<path d="M80.3536 7.64645C80.1583 7.45119 79.8417 7.45119 79.6464 7.64645L76.4645 10.8284C76.2692 11.0237 76.2692 11.3403 76.4645 11.5355C76.6597 11.7308 76.9763 11.7308 77.1716 11.5355L80 8.70711L82.8284 11.5355C83.0237 11.7308 83.3403 11.7308 83.5355 11.5355C83.7308 11.3403 83.7308 11.0237 83.5355 10.8284L80.3536 7.64645ZM80.5 36V8H79.5V36H80.5Z" fill="black"/>
<path d="M147.354 80.3536C147.549 80.1583 147.549 79.8417 147.354 79.6464L144.172 76.4645C143.976 76.2692 143.66 76.2692 143.464 76.4645C143.269 76.6597 143.269 76.9763 143.464 77.1716L146.293 80L143.464 82.8284C143.269 83.0237 143.269 83.3403 143.464 83.5355C143.66 83.7308 143.976 83.7308 144.172 83.5355L147.354 80.3536ZM124 80.5H147V79.5H124V80.5Z" fill="black"/>
<path d="M9.64644 81.6464C9.45118 81.8417 9.45118 82.1583 9.64644 82.3536L12.8284 85.5355C13.0237 85.7308 13.3403 85.7308 13.5355 85.5355C13.7308 85.3403 13.7308 85.0237 13.5355 84.8284L10.7071 82L13.5355 79.1716C13.7308 78.9763 13.7308 78.6597 13.5355 78.4645C13.3403 78.2692 13.0237 78.2692 12.8284 78.4645L9.64644 81.6464ZM37 81.5L10 81.5L10 82.5L37 82.5L37 81.5Z" fill="black"/>
<path d="M79.6464 91.3536C79.8417 91.5488 80.1583 91.5488 80.3536 91.3536L83.5355 88.1716C83.7308 87.9763 83.7308 87.6597 83.5355 87.4645C83.3403 87.2692 83.0237 87.2692 82.8284 87.4645L80 90.2929L77.1716 87.4645C76.9763 87.2692 76.6597 87.2692 76.4645 87.4645C76.2692 87.6597 76.2692 87.9763 76.4645 88.1716L79.6464 91.3536ZM79.5 68V91H80.5V68H79.5Z" fill="black"/>
</svg>
