<svg width="230" height="230" viewBox="0 0 230 230" fill="none" xmlns="http://www.w3.org/2000/svg">
<path d="M115 5C129.445 5 143.749 7.84523 157.095 13.3733C170.441 18.9013 182.567 27.0038 192.782 37.2183C202.996 47.4327 211.099 59.559 216.627 72.9048C222.155 86.2507 225 100.555 225 115C225 129.445 222.155 143.749 216.627 157.095C211.099 170.441 202.996 182.567 192.782 192.782C182.567 202.996 170.441 211.099 157.095 216.627C143.749 222.155 129.445 225 115 225C100.555 225 86.2506 222.155 72.9048 216.627C59.559 211.099 47.4327 202.996 37.2182 192.782C27.0038 182.567 18.9012 170.441 13.3732 157.095C7.84522 143.749 4.99999 129.445 5 115C5.00001 100.555 7.84525 86.2506 13.3733 72.9048C18.9013 59.559 27.0038 47.4326 37.2183 37.2182C47.4328 27.0038 59.5591 18.9012 72.9049 13.3732C86.2507 7.84522 100.555 4.99999 115 5L115 5Z" stroke="#4EE6B7" stroke-width="10" stroke-linecap="round"/>
</svg>
